<?xml version="1.0" encoding="utf-8"?>
<!-- Generator: Adobe Illustrator 26.5.0, SVG Export Plug-In . SVG Version: 6.00 Build 0)  -->
<svg version="1.1" id="Layer_1" xmlns="http://www.w3.org/2000/svg" xmlns:xlink="http://www.w3.org/1999/xlink" x="0px" y="0px"
	 viewBox="0 0 24 24" style="enable-background:new 0 0 24 24;" xml:space="preserve">
<style type="text/css">
	.st0{fill:#1D1D1D;}
</style>
<path d="M7.915,4.372c-0.08-2.215-3.307-2.215-3.403,0c0,0.915,0.771,1.67,1.718,1.67C7.16,6.041,7.915,5.303,7.915,4.372z"/>
<path d="M8.547,9.798c0.198-0.192,0.401-0.379,0.609-0.562C9.2,9.175,9.252,9.119,9.298,9.059H7.302V8.851
	c0.048-0.674,0.642-1.092,1.236-1.316c0.417-0.161,0.867-0.241,1.3-0.241c0.336,0,0.678,0.062,1.011,0.159
	c0.163-0.147,0.33-0.287,0.505-0.419c0.045-0.073,0.088-0.149,0.134-0.221c-0.444-0.178-0.915-0.28-1.394-0.29H9.518
	C8.779,6.555,8.057,6.764,7.431,7.165C6.788,7.583,6.467,8.161,6.467,8.787v0.61c0,0.225,0.161,0.385,0.385,0.401H8.547z"/>
<path d="M9.807,6.057c0.931,0,1.686-0.738,1.686-1.67c-0.08-2.215-3.307-2.215-3.403,0C8.089,5.303,8.859,6.057,9.807,6.057z
	 M9.839,3.505c0.498,0.016,0.883,0.401,0.915,0.883c-0.064,1.22-1.846,1.22-1.894,0C8.875,3.89,9.325,3.489,9.839,3.505z"/>
<path d="M7.785,6.716c-0.163-0.115-0.357-0.156-0.379-0.16C7.364,6.548,7.265,6.537,7.035,6.523H6.457
	C5.719,6.555,4.997,6.764,4.37,7.165C3.728,7.582,3.407,8.16,3.407,8.787v0.61c0,0.225,0.161,0.385,0.385,0.401h2.533
	c-0.04-0.187-0.287-1.426,0.517-2.389C7.16,7.03,7.531,6.825,7.785,6.716z"/>
<g>
	<path d="M18.119,17.38c0.777,0,1.399-0.61,1.399-1.387c-0.072-1.829-2.738-1.829-2.821,0C16.696,16.746,17.33,17.38,18.119,17.38
		L18.119,17.38z"/>
	<path d="M20.092,18.288c-0.514-0.335-1.112-0.514-1.722-0.538c-0.06,0-0.108,0-0.167,0c-0.012,0-0.036,0-0.048,0h-0.012h-0.012
		c-0.012,0-0.036,0-0.048,0c-0.06,0-0.108,0-0.167,0c-0.61,0.024-1.207,0.203-1.722,0.538c-0.526,0.347-0.801,0.825-0.801,1.339
		v0.502c0,0.179,0.132,0.323,0.323,0.335h4.854c0.191-0.012,0.323-0.155,0.323-0.335v-0.502
		C20.893,19.113,20.617,18.635,20.092,18.288z"/>
</g>
<g>
	<line x1="13.36" y1="20.41" x2="13.36" y2="6.749"/>
	<g>
		<g>
			<polygon class="st0" points="12.532,20.41 12.532,12.439 12.532,9.92 10.599,11.853 9.428,10.682 13.36,6.749 17.292,10.682 
				16.121,11.853 14.188,9.92 14.188,12.439 14.188,20.41 			"/>
		</g>
	</g>
</g>
</svg>
