<svg width="429" height="358" viewBox="0 0 429 358" fill="none" xmlns="http://www.w3.org/2000/svg">
<g filter="url(#filter0_i_718_190)">
<path d="M0 324C0 315.716 6.71573 309 15 309H414C422.284 309 429 315.716 429 324V343C429 351.284 422.284 358 414 358H15C6.71573 358 0 351.284 0 343V324Z" fill="#DFEAEF"/>
</g>
<path d="M19 68C19 56.9543 27.9543 48 39 48H394C405.046 48 414 56.9543 414 68V295H19V68Z" fill="#DFEAEF"/>
<path d="M169 309H262V314C262 325.046 253.046 334 242 334H189C177.954 334 169 325.046 169 314V309Z" fill="#B4D0D5"/>
<rect x="51" y="75" width="332" height="202" rx="20" fill="#F7931D"/>
<rect x="19" y="295" width="395" height="14" fill="#B4D0D5"/>
<line x1="75" y1="213" x2="135" y2="213" stroke="black" stroke-width="10" stroke-linecap="round"/>
<line x1="75" y1="243" x2="205" y2="243" stroke="black" stroke-width="10" stroke-linecap="round"/>
<path d="M297.107 0H207.876C205.528 126.38 194.366 154.354 168.065 176.403H207.876C260.749 169.445 286.285 131.927 297.107 0Z" fill="#032974"/>
<path d="M164.633 88.5449H141.982C151.362 185.787 148.623 178.353 203.758 175.717C173.644 147.952 167.655 127.775 164.633 88.5449Z" fill="#05A255"/>
<circle cx="153.651" cy="54.2252" r="22.651" fill="#F4B707"/>
<defs>
<filter id="filter0_i_718_190" x="0" y="309" width="429" height="49" filterUnits="userSpaceOnUse" color-interpolation-filters="sRGB">
<feFlood flood-opacity="0" result="BackgroundImageFix"/>
<feBlend mode="normal" in="SourceGraphic" in2="BackgroundImageFix" result="shape"/>
<feColorMatrix in="SourceAlpha" type="matrix" values="0 0 0 0 0 0 0 0 0 0 0 0 0 0 0 0 0 0 127 0" result="hardAlpha"/>
<feOffset dx="16"/>
<feComposite in2="hardAlpha" operator="arithmetic" k2="-1" k3="1"/>
<feColorMatrix type="matrix" values="0 0 0 0 0.705882 0 0 0 0 0.815686 0 0 0 0 0.835294 0 0 0 1 0"/>
<feBlend mode="normal" in2="shape" result="effect1_innerShadow_718_190"/>
</filter>
</defs>
</svg>
