<?xml version="1.0" encoding="utf-8"?>
<!-- Generator: Adobe Illustrator 23.0.1, SVG Export Plug-In . SVG Version: 6.00 Build 0)  -->
<svg version="1.1" id="Camada_1" xmlns="http://www.w3.org/2000/svg" xmlns:xlink="http://www.w3.org/1999/xlink" x="0px" y="0px"
	 viewBox="0 0 110 118" style="enable-background:new 0 0 110 118;" xml:space="preserve">
<style type="text/css">
	.st0{fill:#FFFFFF;}
</style>
<path class="st0" d="M110,51c0,0,1-1-3-2s-5,3-5,3h-2c0,0-9-10-12-12s-9-3-19,1s-8,6-20,10c-9,1-14,3-11,7s19-1,22,2s1,5-4,12
	s-22,27-22,28s-1,9,7,6l19-21c0,0,2-2,1.5,1.5C60,91,49,114,49,114s0,5,6,2s15-25,15-25s3-3,3,1c-1,7-6,25,1,25c5,0,8-25,8-25
	s2-4,3,1s1,20,1,20s1,4,4,4s4-5,4-5s-1-28,1-32s7-7,7-11c0,0,8,0,8-2S110,51,110,51z"/>
<path class="st0" d="M19,78c0,0-12,2-10,8s9,15,14,13s6-10,6-10L19,78z"/>
<path class="st0" d="M19,66c0,0,0-7-10-19S0,30,2,28s5,0,8,5s9,10,9,10s4,1-3-10s-8-20-6-21s7-2,11,8s7,20,9,19S28,7,30,3s6-3,7,8
	s1,26,4,26s3-9,6-20s5-11,8-11s0,21,0,29s1,11,1,11s-2,2-16,5c-6,2-5,7-3,9s6,1,12,1s11-1,10,3S45.5,82.5,43.5,85.5S34,91,29,88
	c-2-3-9-9-8-11C21,73,19,66,19,66z"/>
</svg>
