<?xml version="1.0" encoding="utf-8"?>
<!-- Generator: Adobe Illustrator 15.0.0, SVG Export Plug-In  -->
<!DOCTYPE svg PUBLIC "-//W3C//DTD SVG 1.1//EN" "http://www.w3.org/Graphics/SVG/1.1/DTD/svg11.dtd" [
	<!ENTITY ns_flows "http://ns.adobe.com/Flows/1.0/">
]>
<svg version="1.1"
	 xmlns="http://www.w3.org/2000/svg" xmlns:xlink="http://www.w3.org/1999/xlink" xmlns:a="http://ns.adobe.com/AdobeSVGViewerExtensions/3.0/"
	 x="0px" y="0px" width="28px" height="23px" viewBox="161.583 74.666 28 23" enable-background="new 161.583 74.666 28 23"
	 xml:space="preserve">
<defs>
</defs>
<rect display="none" fill="#00579F" width="298" height="247"/>
<rect id="_x3C_Slice_x3E__3_" x="161.583" y="74.666" fill="none" width="28" height="23"/>
<path fill="#FFFFFF" d="M173.969,95.805c-6.676-0.601-6.728-5.346-6.806-6.623c-0.078-1.276,0.679-4.667,0.679-4.667h2.319
	c0,0-0.104,0.182-0.391,1.173c-0.287,0.991-0.104,2.164-0.104,2.164c0.861,4.146,4.563,4.329,4.563,4.329s1.018,0.078,1.853,0
	c0.834-0.079,2.269-0.809,2.269-0.809l0.286-3.338c-0.573,0.704-1.564,1.825-3.677,1.461c-2.112-0.365-3.207-3.65-0.886-5.424
	c2.32-1.773,4.327,0.104,4.327,0.104l0.235-2.946c-4.72-2.113-7.796,2.19-7.796,2.19l0.286-1.903h-8.865l-0.443,2.972h2.66
	l-0.443,6.833c1.512,5.763,6.987,5.971,6.987,5.971h2.66c6.361-0.86,9.596-5.685,9.596-5.685
	C179.184,96.248,173.969,95.805,173.969,95.805z"/>
<path fill="#FFFFFF" d="M185.989,81.489l-0.547,5.456c0,0-0.47,1.154-1.682,1.154c0,0-1.604-0.099-1.604-1.154
	s0.449-5.456,0.449-5.456h-3.422l-0.47,5.809c0,0,0.488,4.146,4.654,4.146c0,0,4.01,0.216,5.438-4.166c0,0,0.348-1.544,0.516-5.788
	H185.989z"/>
<path fill="#FFFFFF" d="M176.484,76.666c0,0,5.281-0.203,6.116,3.979v0.821h3.384v-0.821c0,0-0.398-4.932-6.252-5.414h-1.825
	c0,0-6.598,0.313-10.926,5.893C166.981,81.125,170.366,77.057,176.484,76.666z"/>
</svg>
